<svg xmlns="http://www.w3.org/2000/svg" width="414" height="314" viewBox="0 0 414 314">
    <defs>
        <linearGradient id="9ab66slx5a" x1="50%" x2="50%" y1="0%" y2="100%">
            <stop offset="0%" stop-color="#0C7063"/>
            <stop offset="100%" stop-color="#01332B"/>
        </linearGradient>
    </defs>
    <g fill="none" fill-rule="evenodd">
        <g>
            <g>
                <path fill="url(#9ab66slx5a)" d="M0 0H414V314H0z"/>
                <g opacity=".5">
                    <g>
                        <g fill="#0E524A">
                            <path d="M408.212 63.997c-1.811-.391-2.553-1.232-3.212-1.363-.659-.132-5.437-2.208-6.096-2.274-.66-.062-5.11-1.944-6.262-1.944-1.152 0-5.437-1.948-5.682-2.142-.245-.197-2.308-.91-3.13-.65-.827.259-2.556-.585-2.8-.91-.249-.326-1.898-1.039-2.802-.907-.907.128-1.566-.325-2.967-.585-1.4-.26-2.308-1.495-2.636-2.014-.328-.519-3.954-.647-5.437-.778-1.48-.128-3.954-3.633-5.93-3.765-1.977-.128-12.52-5.062-15.815-5.062s-12.441-4.284-14.252-5.194c-1.815-.91-5.275-3.57-6.18-3.958-.907-.39-.33-.585-1.317-1.17-.987-.584-2.388-.387-3.792-.778-1.397-.391-2.963-.716-3.705-.716s-1.732-.713-2.719-.713c-.986 0-2.06-1.038-3.46-1.232-1.397-.194-2.798-1.363-3.95-2.014-1.156-.647-5.155-.065-5.603 0-.455.066-1.239 1.267-1.773 1.623-.535.357-1.605.229-2.264.26-.662.03-1.031.681-1.197.716-.165.031-1.231.744-1.728 1.104-.497.356-1.65.972-2.35 1.034-.096.01-.207.035-.32.066l-.125-.045c-2.097-.879-3.58-.682-6.668-1.17-3.092-.487-10.75-4.674-12.11-5.743-1.36-1.073-2.35.778-3.215 0-.866-.779-3.209-2.34-4.572-2.34-1.355 0-2.47-2.823-4.447-3.307-1.977-.488-4.695-.294-6.054-1.267-1.36-.975-10.381-7.885-11.862-8.47-1.483-.585-2.104-1.657-3.215-1.657-1.11 0-3.336.584-4.074 0-.742-.585-1.894-1.232-2.595-1.298-.704-.066-1.856-.682-2.35-1.038-.496-.356-1.566-1.07-1.728-1.104-.165-.03-.534-.681-1.197-.712-.659-.035-1.732.096-2.263-.263-.535-.357-1.321-1.558-1.773-1.62-.456-.066-4.447-.65-5.603 0-1.152.647-2.553 1.817-3.95 2.01-1.401.194-2.474 1.236-3.46 1.236-.99 0-1.978.713-2.72.713-.741 0-2.307.325-3.705.712-1.404.391-2.801.198-3.791.779-.99.585-.414.782-1.318 1.17-.907.39-4.368 3.051-6.179 3.961-1.811.907-10.957 5.19-14.252 5.19s-13.841 4.935-15.815 5.066c-1.98.128-4.45 3.633-5.934 3.765-1.48.128-5.106.26-5.434.778-.33.52-1.238 1.754-2.635 2.01-1.404.26-2.063.717-2.967.585-.908-.128-2.553.585-2.802.91-.248.326-1.977 1.17-2.801.91-.825-.263-2.88.454-3.13.647-.248.194-4.53 2.142-5.681 2.142-1.156 0-5.603 1.882-6.262 1.948-.66.066-5.437 2.142-6.096 2.27-.66.132-1.401.976-3.216 1.367 0 0-5.64-.197-7.99-.294-2.346-.097-6.548-.682-8.4-.779-1.853-.097-7.166 1.75-8.156 2.045-.987.29-10.75 3.211-12.234 3.602-1.48.391-4.82 1.363-6.055 1.46-1.235.097-6.548 1.851-9.018 2.045-2.474.197-8.65 1.46-10.133 1.948 0 0-8.035 2.498-10.75 3.536-2.719 1.038-21.007 10.194-28.421 12.336C8.287 66.222 3.04 67.672 0 68.723v87.112c9.519-.84 22.06-2.252 25.292-1.401 4.447 1.17 14.086-2.789 21.994-2.789 6.244 0 96.296-8.74 138.138-12.612 1.235.737 2.239 1.27 2.843 1.495 3.456 1.297 8.562 7.657 15.318 11.162 6.755 3.509 28.01 4.543 34.927 4.806 6.921.256 69.86 5.581 78.426 5.972 4.95.225 54.534 4.997 97.062 8.99V63.789c-2.584.097-5.79.208-5.79.208" transform="translate(0 81)"/>
                        </g>
                        <g fill="#0B413C">
                            <path d="M400.127 1.391c-4.337.302-7.604 5.2-11.05 7.296-4.544 2.757-9.192 1.604-14.229.558-2.442-.51-6.196.114-8.738.298-3.668.266-7.232.595-10.906.758-3.412.153-4.578.309-7.362.762-2.44.392-4.668.07-7.197.17-2.684.104-6.169.447-8.421 1.843-3.24 2.002-4.792 5.058-8.636 6.388-6.517 2.252-12.906 6.443-18.437 10.167-9.842 6.63-22.887 9.077-34.69 12.153-10.36 2.702-21.758 4.7-31.995 8.057-5.216 1.715-4.709 1.656-7.631 4.015-3.098 2.498-6.852 4.189-10.647 5.737-2.925 1.199-5.585 2.342-8.345 3.755-5.782 2.959-11.427 4.69-17.716 6.929-11.968 4.264-23.598 9.027-35.704 12.904-3.378 1.084-6.282 3.18-9.47 4.642-11.037 5.06-21.828 10.507-32.796 15.61-4.064 1.894-7.762 4.537-11.685 6.644-8.729 4.666-18.747 7.739-28.19 11.168-7.707 2.796-14.359 6.464-22.422 8.214-17.805 3.88-36.504 7.26-53.861 12.762v54.35c.531.155 1.06.311 1.587.467 15.149 4.947 29.27-17.792 43.242-10.784 6.452 3.235 12.914 6.447 19.279 9.81 5.596 2.952 11.274 5.162 17.198 6.936H414V.318c-1.308.076-2.591.19-3.843.37-3.43.492-6.562.464-10.03.703z" transform="translate(0 81) translate(0 26)"/>
                        </g>
                        <g fill="#0B413C">
                            <path d="M395.78 125.786c-3.742-1.368-6.188-1.005-10.135-1.437-3.191-.35-6.148-1.41-8.884-2.854-1.8-.95-3.812-2.252-5.882-2.746-2.557-.608-5.227.218-7.783-.128-7.728-1.04-8.891-9.21-13.86-13.272-2.059-1.686-4.294-3.002-6.789-4.115-3.263-1.457-5.323-1.267-9.028-1.274-5.572-.014-10.875-.96-15.753-3.41-6.044-3.033-5.79-6.933-8.432-11.71-2.104-3.808-6.524-5.231-11.109-4.319-2.256.446-3.74 1.91-5.706 2.57-1.487.498-3.512.176-5.089.17-1.452 0-3.105.183-4.54.04-1.584-.161-2.895-.825-4.45-1.046-2.643-.38-5.928-.65-8.601-.863-3.04-.239-3.078 0-4.813-2.039-1.339-1.565-3.37-3.651-5.175-4.791-1.277-.808-1.16-.539-2.463-.864-2.388-.6.493 2.273-3.478-.573-1.221-.878-1.856-2.826-3.205-3.527-.704-.366-6.914-.27-5.872-.17-6.365-.594-13.755-2.646-18.582-6.377-4.223-3.264-6.158-7.845-8.131-12.274-1.111-2.494-2.23-8.363-5.741-8.823-2.981-.393-5.292.1-8.387-.925-6.172-2.052-10.15-6.706-14.71-10.613-1.936-1.654-3.775-3.285-5.566-5.068-4.157-4.128-9.139-7.123-13.769-10.767-2.715-2.146-3.833-4.681-7.21-5.89-1.25-.45-1.763-.228-3.154-.885-.955-.449-1.642-1.278-2.739-1.582-3.747-1.04-5.71 2.594-9.705 1.434-1.742-.512-4.219-2.512-5.42-3.77-2.511-2.632-1.956-3.04-6.575-2.99-6.842.072-14.563-.73-21.325.234-3.43.49-6.565.463-10.029.701-4.337.3-7.607 5.186-11.054 7.272-4.54 2.757-9.19 1.603-14.228.563-2.442-.511-6.196.114-8.731.297-3.671.263-7.239.588-10.91.757-3.411.148-4.578.31-7.365.753-2.436.394-4.665.076-7.197.17-2.68.11-6.165.452-8.421 1.844-3.24 1.997-4.789 5.04-8.632 6.367-6.52 2.249-12.907 6.425-18.437 10.142-2.694 1.807-5.634 3.3-8.715 4.581v125.42h414v-26.93c-2.477-.056-4.35-.15-7.348-1.763-3.671-1.976-6.866-4.055-10.871-5.52z" transform="translate(0 81) translate(0 69)"/>
                        </g>
                        <g fill="#073A34">
                            <path d="M408.12 1.128c-2.663.886-5.119 1.994-7.848 2.771-4.392 1.244-9.115 3.179-13.727 3.709-1.239.143-2.509.048-3.747.212-5.217.708-7.004 2.743-10.278 5.894-3.843 3.698-8.51 7.821-13.82 10.139-4.82 2.095-9.888 1.408-15.067 1.544-2.463.066-2.47.192-4.798 1.366-3.368 1.697-6.942 3.078-10.468 4.528-3.981 1.641-6.993 1.561-11.312 1.526-5.382-.049-10.526 1.272-15.59 2.642-5.721 1.544-12.007 1.617-17.865.366-5.11-1.08-10.043-3.116-15.076-4.437-5.859-1.54-11.417-3.241-16.871-5.57-3.095-1.327-5.316-3.22-8.715-4.15-2.974-.813-6.051-1.405-9.035-2.2-2.329-.613-4.64-1.098-6.673-2.185-.817-.436-1.276-1.042-1.952-1.478-1.208-.777-1.89-.958-3.478-1.408-3.85-1.07-7.303-3.597-11.25-3.827-9.246-.53-19.53.878-27.683 4.458-2.429 1.07-4.982 1.565-7.552 2.363-3.454 1.077-5.962 2.729-9.101 4.2-4.696 2.206-8.498 2.39-13.7 2.356-3.93-.028-7.752-.265-11.33.83-4.223 1.286-7.97 2.791-12.479 2.871-6.344.112-12.52-1.836-18.678-2.83-6.348-1.028-11.05 1.802-16.594 3.771-6.7 2.384-13.604 1.642-20.697 2.001-3.505.185-8.128.512-11.36 1.593-2.733.92-5.497 2.042-7.894 3.457-1.115.663-2.36 1.872-3.688 2.262-2.885.837-7.07-.097-9.974-.376-4.617-.436-8.836-1.258-13.2-2.544-1.663-.499-2.256-.628-3.878-.68-3.346-.119-7.345.617-10.595-.136-2.377-.554-3.001-1.649-4.588-2.854-1.429-1.081-4.496-.952-6.293-.572-.438.087-.856.226-1.266.376v68.425c10.188-.286 20.375-.638 30.556-1.028 14.887-.558 29.87-1.008 44.774-.453 11.506.421 23.002 1.33 34.487 1.98 28.49 1.592 56.935 1.655 85.48 1.672 10.626.007 21.128.049 31.723-.7 20.082-1.415 40.01-3.05 60.206-3.123 11.685-.042 23.377.087 35.062.094 23.412.028 46.858.286 70.266-.17 7.156-.137 14.3-.315 21.446-.437V.066c-1.984.205-3.913.41-5.88 1.062" transform="translate(0 81) translate(0 111)"/>
                        </g>
                        <g fill="#09312D">
                            <path d="M389.987 2.587c-1.531.2-2.911.035-4.312.193-1.466.166-2.626.672-4.206.974-3.367.661-8.2.872-10.591 1.93-1.032.454-1.553.46-2.78.826-.48.145-.96.549-1.36.679-1.84.626-3.978 1.55-5.89 1.962-3.09.668-7.269.703-9.942 1.318.034.296.072.587.11.88-2.729.242-5.475.435-7.831.846-1.37.24-2.422.665-3.757.81-.76.083-1.625-.089-2.557-.043-.749.035-1.632.27-2.336.31-.079 0-.165.006-.244.013-1.315-.13-2.622-.232-3.961-.253-3.284-.035-6.59.144-9.933.44-.217-.028-.434-.064-.648-.102-.149.08-.31.15-.476.21-1.69.166-3.399.36-5.113.577-.345.028-.67.07-.97.123-2.28.296-4.581.62-6.913.957-.515.042-1.022.08-1.54.15-3.618.447-6.906.816-10.829.859-.062 0-.69-.211-1.231-.194-.456.021-.652.137-1.329.151-2.794.057-6.003-.13-8.99.022-1.867.098-3.56.583-5.306.611-2.533.042-4.82-.597-7.249-.474-1.718.091-3.764.538-5.72.949-1.832.39-3.885 1.125-5.454 1.132-1.239.007-1.891-.468-2.409-.563-.372-.077-.897.043-1.276-.028-.687-.109-1.038-.295-1.822-.376-2.684-.27-5.047-.056-7.983-.13-3.978-.112-7.78-.295-11.402-.545-2.063-.144-4.14-.095-6.02-.281-.504-.046-.956-.274-1.498-.37-2.225-.393-4.309-.467-6.192-.804-.8-.204-.818-.204-1.553-.197-.7 0-1.308.074-2.284.137-3.333-.826-6.98-.208-10.54-.18-.393 0-.607-.172-1.231-.2-1.68-.06-2.974.295-4.568.274-2.47-.031-4.871-.727-6.88-.643-.838.039-1.435.288-2.335.31-1.708.045-3.595-.166-5.43-.092-1.763.07-3.478.503-4.934.44-2.208-.081-4.381-1.147-6.417-1.154-.862-.232-1.852-.08-2.729-.57-4.716-.08-8.87-.85-12.754-1.434-3.975-.604-7.777-1.195-10.916-2.281-1.553 0-1.815-.584-2.63-.918-4.208-.144-6.506-1.167-9.414-1.902-1.65-.165-3.599-.886-4.499-1.122-2.719-.72-7.624-.548-11.354-.72-2.94-.137-5.658-.043-7.983-.137-.9.372-2.902.007-3.66.467-4.672-.33-8.346.102-13.193.123-1.467.33-3.35.39-4.99.612-.606.074-1.176.186-1.738.295-3.064.24-6.151.44-9.253.598-1.911-.042-3.822-.084-5.637.046-.707.049-1.36.14-2.001.25-10.564.295-21.173.059-31.271-.915-.5-.08-.99-.172-1.449-.267-.27.007-.538.021-.81.042-6.128-.668-12.055-1.607-17.65-2.88-4.058.714-7.943 1.505-10.91 2.68-2.746-.2-5.482-.405-9.015-.07v82.8h414V.656c-4.968-.123-10.505.285-14.917-.37-3.147.528-5.924 1.889-9.095 2.3z" transform="translate(0 81) translate(0 144)"/>
                        </g>
                        <g fill="#012822">
                            <path d="M394.757.25c-3.992.135-8.56-.204-13.61 0-6.407.27-14.646-.346-19.597 1.268-1.638.532-5.289 2.2-8.166 2.529-5.285 1.662-9.663 4.029-16.87 4.212-1.539.777-2.267 2.18-4.9 2.107-5.837 2.495-12.568 3.77-19.599 5.058-6.865 1.258-14.276 2.944-22.318 2.95-1.718 1.141-3.326.73-4.895 1.262-3.454-.059-7.649 2.408-11.43 2.532-2.501.073-5.206-1.026-8.166-1.271-3.078-.249-6.376.176-9.257 0-1.514-.086-2.4-.722-3.805-.836-3.37-.29-7.766 1.282-11.975 1.26-2.712-.01-4.74-.935-7.625-.842-1.066.034-1.51.446-2.176.418-6.028-.2-11.924-1.842-17.961 0-1.632-.173-2.626-.384-3.809-.418-1.249-.031-1.273-.038-2.722.418-3.364.736-6.935.833-10.888 1.69-.966.207-1.84.746-2.722.842-3.274.37-6.776.17-10.34.419-6.262.452-12.796.742-19.596.843-5.027.079-8.929-.54-13.61 0-1.363.162-2.053.6-3.264.843-.676.141-1.514-.156-2.177 0-.928.224-2.25 1.33-4.357 1.268-2.653-.08-5.786-1.942-8.708-2.954-3.122-1.082-6.379-2.243-9.253-2.526-4.06-.404-8.238 1.047-12.52.846-2.943-.141-5.585-1.378-8.711-1.69-4.992-.49-10.516-.168-15.239-.417-1.135-.066-1.414-.363-2.177-.425-.91-.066-2.077.425-2.177.425-6.641-.263-12.037-1.31-17.964-2.53-4.412-.911-8.904-.835-13.062-2.107-.262-.08-.341-.774-.545-.843-2.984-1.043-8.328-.141-10.888-2.529-5.55 1.22-11.371.439-16.874 0-2.587-.21-5.461-.553-8.166-.843-1.17-.128-2.56-.722-3.809-.843-1.563-.148-3.108.228-4.354 0-1.656-.304-2.98-.988-4.474-1.575V74h414V1.787c-4.292-.342-8.408-.632-13.259-.27-1.07-1.14-4.633-.345-5.985-1.267z" transform="translate(0 81) translate(0 155)"/>
                        </g>
                    </g>
                    <path fill="#072220" d="M354.481 198.968c-1.126.09-1.945-.217-3.684-.394-1.74-.18-2.866-1.021-3.277-1.378-.408-.35-4.913-.439-6.752-.527-1.845-.089-4.917-2.48-7.372-2.57-1.366-.049-26.04-1.119-30.62-2.049v-7.822c0-1.086-.382-2.079-1.02-2.863v-15.789c0-1.178-1.084-2.13-2.419-2.13h-4.89c-.014-1.036-.2-2.171-.707-3.326-.56-1.264-1.686-2.479-2.975-3.526-1.243-1.024-2.629-1.905-3.764-2.544.057-.169.103-.397.12-.648.014-.3-.023-.636-.168-.981l-.009-.006c-.151-.356-.476-.679-.838-.958-.334-.254-.69-.468-.956-.616l-.022-.59c.065-.058.125-.129.174-.22.048-.094.082-.2.082-.311 0-.123-.034-.246-.1-.334-.048-.094-.122-.174-.216-.222l-.012-.514c.052-.046.097-.1.126-.162.043-.072.065-.16.065-.257 0-.1-.025-.188-.068-.271-.046-.074-.1-.129-.165-.174l-.023-.545-.186-4.133c0-.057-.042-.097-.1-.097-.042 0-.088.04-.096.097l-.18 4.133-.026.545c-.062.045-.12.1-.162.174-.043.083-.08.171-.08.27 0 .098.026.186.068.258.035.062.08.116.134.162l-.022.514c-.092.048-.157.128-.214.222-.057.088-.089.211-.089.334 0 .111.026.217.08.316.04.086.103.157.177.214l-.031.59c-.266.15-.62.363-.95.617-.36.28-.687.602-.844.958-.154.345-.191.688-.174.987.017.251.06.48.114.648-1.135.639-2.52 1.52-3.758 2.544-1.284 1.047-2.407 2.262-2.972 3.526-.505 1.155-.69 2.29-.707 3.326h-1.626v-5.748c.012-.006.02-.017.029-.029.108-.17 2.57-4.227.33-8.389-.74-1.36-2.218-2.664-3.909-3.788-1.622-1.103-3.447-2.05-4.936-2.74.068-.18.125-.426.145-.694.026-.322-.022-.69-.228-1.058-.202-.382-.633-.733-1.106-1.036-.436-.268-.904-.502-1.252-.656l-.04-.636c.103-.062.18-.14.234-.228.071-.105.108-.217.108-.345 0-.128-.043-.262-.122-.357-.072-.1-.157-.185-.277-.24l-.031-.547c.07-.048.128-.111.18-.177.053-.077.085-.174.085-.274 0-.11-.046-.205-.106-.288-.057-.085-.128-.145-.214-.19l-.028-.586-.24-4.444c-.011-.057-.07-.102-.13-.102-.072 0-.13.045-.13.102l-.241 4.444-.032.585c-.088.046-.157.106-.214.191-.057.083-.091.177-.091.288 0 .1.029.197.083.274.04.066.1.129.17.177l-.022.548c-.117.054-.217.14-.282.24-.086.094-.131.228-.131.356 0 .128.045.24.108.34.068.094.142.17.234.233l-.032.636c-.353.154-.818.388-1.26.656-.473.303-.901.654-1.098 1.036l-.011.006c-.194.373-.24.73-.223 1.052.02.268.083.514.157.693-1.489.69-3.314 1.638-4.953 2.741-1.688 1.124-3.171 2.428-3.907 3.788-2.287 4.245.336 8.384.342 8.39.003.01.012.017.02.022v5.754h-4.982v-2.97h-2.352c1.813-1.666 2.886-3.848 2.886-6.227 0-4.663-4.158-8.534-9.625-9.353-.29-.325-.547-.602-.838-.776v-1.04c0-.303-.174-.568-.434-.748l-.664-5.209c-.026-.18-.026-.194-.057-.022-.203 1.76-.43 3.494-.664 5.231-.26.18-.437.445-.437.747v1.041c-.228.174-.459.397-.687.725-5.729.647-10.149 4.59-10.149 9.404 0 2.38 1.095 4.561 2.92 6.227h-2.19v2.97h-5.338l-.24-18.304c.428-.169.878-.608 1.115-1.127.288-.62.425-.93.713-1.549.302-.662-.063-1.198-.81-1.198h-1.066l-.237-18.062h.009l.005-.636h-.02l-.005-.55c.273-.206.536-.55.701-.947h.08v-.211c.202-.52.32-.83.536-1.392.254-.665-.051-1.198-.679-1.198h-.69l-.134-10.206v-.365l-.025-1.826v-.274l-.089-6.38h.046v-.095h.043v-.094h.085v-.171h-.085v-.094h-.04v-.083h-.06l-.009-.87c.243-.214.474-.573.61-.978.211-.622.314-.933.522-1.555.223-.659-.045-1.195-.593-1.195h-.636l.026-5.776h.796v-.08h.02v-.04h.02l.005-.14h-.02v-.037h-.02v-.091h-.79c.046-.485.074-1.366-.2-1.883-.359-.667-1.043-1.112-1.616-1.657.168-.091.285-.268.29-.474 0-.302-.236-.536-.521-.553.245-.003.453-.214.453-.47.006-.26-.2-.468-.453-.474.168-.009.31-.143.31-.32 0-.176-.13-.328-.316-.328-.18 0-.32.152-.32.328 0 .177.138.311.306.32-.251.006-.47.214-.47.473-.006.257.202.468.456.471-.291.017-.53.251-.536.553 0 .197.102.368.259.463-.582.547-1.28.995-1.643 1.668-.285.517-.265 1.398-.225 1.883h-.793v.091h-.014v.037h-.02v.14h.017v.04h.017v.08h.796l-.028 5.776h-1.101c-.548 0-.813.536-.593 1.195.208.622.31.933.521 1.555.223.659.7 1.195 1.064 1.195l-.008.653h-.055v.083h-.045v.094h-.089v.171h.089v.094h.04l-.006.094h.048l-.15 6.381-.012.377-.037 1.723-.009.365-.236 10.206h-.941c-.628 0-.933.533-.68 1.198.238.616.357.93.594 1.546.2.519.576.958.93 1.126l-.009.428h-.02v.636h.006l-.43 18.062h-1.067c-.747 0-1.11.536-.807 1.198.285.619.425.93.71 1.549.23.502.661.93 1.075 1.11l-.434 18.32h-3.034l-.29-22.668c.33-.128.687-.473.872-.878.222-.49.334-.736.562-1.221.236-.525-.049-.941-.639-.941h-.836l-.185-14.191.009-.502h-.015l-.005-.428c.216-.163.422-.434.55-.747h.063v-.16c.16-.414.25-.659.422-1.098.197-.525-.04-.942-.533-.942h-.542l-.106-8.018v-.288l-.02-1.432v-.217l-.065-5.014h.031v-.071h.034v-.075h.066v-.134h-.066v-.074h-.031v-.065h-.046l-.008-.682c.19-.174.376-.454.482-.77.162-.491.245-.733.407-1.221.174-.52-.03-.942-.464-.942h-.5l.02-4.538h.625v-.062h.014v-.032h.017l.003-.108h-.014v-.029h-.017v-.074h-.622c.037-.38.063-1.07-.157-1.477-.279-.525-.818-.876-1.269-1.301.132-.074.223-.211.229-.374 0-.237-.186-.42-.408-.433.19-.003.356-.169.356-.371.003-.206-.16-.368-.356-.371.131-.009.242-.114.242-.254 0-.137-.102-.257-.245-.257-.145 0-.254.12-.254.257 0 .14.109.245.24.254-.2.003-.368.165-.368.37-.006.203.157.369.356.372-.228.014-.416.196-.422.433 0 .157.083.291.206.362-.457.431-1.007.785-1.292 1.313-.226.407-.208 1.098-.177 1.477h-.622v.074h-.011v.029h-.017v.108h.014v.032h.014v.062h.625l-.023 4.538h-.864c-.43 0-.639.423-.468.942.166.488.246.73.41 1.22.175.52.548.94.836.94l-.005.513h-.043v.065h-.037v.074h-.069v.134h.069v.075h.031l-.003.07h.037l-.12 5.015-.008.294-.028 1.355-.006.288-.188 8.018h-.739c-.493 0-.73.417-.53.942.185.485.276.73.467 1.215.157.41.451.756.73.884l-.008.334h-.017v.502h.005l-.336 14.19h-.838c-.59 0-.876.417-.636.942l.556 1.22c.182.389.522.728.847.868l-.189 7.961h-1.3v-6.56h-3.775v-6.533h-1.96c-.034-7.145-.795-8.54-8.127-13.492-7.015-4.74-10.873-9.247-12.963-13.075h.536v-.956h-.53v-.273h-.522v-.833c.61-.157 1.052-.622 1.052-1.17 0-.553-.442-1.018-1.052-1.175v-.476c.319-.135.544-.411.544-.728 0-.32-.225-.596-.544-.73v-1.207c.17.023.345.037.527.037 1.152 0 2.147-.53 2.652-1.309-.527.391-1.232.63-2.007.63-1.657 0-3-1.098-3-2.45 0-.413.128-.804.35-1.146-.61.447-.992 1.098-.992 1.82 0 .935.636 1.748 1.574 2.165v1.46c-.325.134-.545.41-.545.73 0 .317.22.593.545.728v.476c-.607.157-1.052.622-1.052 1.175 0 .548.445 1.013 1.052 1.17v.744l-.04.089h-.485v.273h-.533v.956h.394c-2.09 3.828-5.949 8.335-12.961 13.075-7.334 4.952-8.102 6.347-8.13 13.492h-1.96v6.533h-3.778v6.56h-.855l-.106-7.95c.337-.128.69-.473.879-.878.222-.49.333-.736.559-1.221.236-.525-.049-.941-.636-.941h-.839l-.185-14.191.009-.502h-.015l-.005-.428c.216-.163.422-.434.55-.747h.066v-.16c.156-.414.25-.659.422-1.098.196-.525-.04-.942-.534-.942h-.544l-.103-8.018v-.288l-.023-1.432v-.217l-.065-5.014h.034v-.071h.031v-.075h.069v-.134h-.069v-.074h-.028v-.065h-.049l-.006-.682c.192-.174.374-.454.48-.77.165-.491.245-.733.41-1.221.174-.52-.034-.942-.467-.942h-.497l.017-4.538h.628v-.062h.014v-.032h.014l.003-.108h-.014v-.029h-.014v-.074h-.622c.034-.38.06-1.07-.157-1.477-.282-.525-.818-.876-1.269-1.301.131-.074.223-.211.228-.374 0-.237-.185-.42-.41-.433.194-.003.356-.169.356-.371.003-.206-.157-.368-.356-.371.13-.009.242-.114.242-.254 0-.137-.103-.257-.245-.257-.143 0-.254.12-.254.257 0 .14.108.245.242.254-.2.003-.367.165-.367.37-.006.203.154.369.353.372-.228.014-.413.196-.419.433 0 .157.083.291.202.362-.456.431-1.003.785-1.291 1.313-.22.407-.206 1.098-.177 1.477h-.619v.074h-.011v.029h-.02v.108h.017v.032h.014v.062h.622l-.02 4.538h-.867c-.43 0-.639.423-.465.942l.41 1.22c.175.52.548.94.836.94l-.008.513h-.04v.065h-.04v.074h-.066v.134h.066v.075h.034l-.003.07h.037l-.12 5.015-.008.294-.029 1.355-.005.288-.189 8.018h-.738c-.493 0-.73.417-.533.942.188.485.28.73.467 1.215.154.41.45.756.73.884l-.008.334h-.017v.502l-.331 14.19h-.836c-.59 0-.878.417-.638.942.225.485.336.73.558 1.22.183.389.52.728.845.868l-.534 22.68h-3.938v-13.92c.009-.012.02-.023.026-.034.108-.174 2.572-4.225.333-8.387-.74-1.357-2.221-2.66-3.91-3.788-1.625-1.1-3.444-2.048-4.935-2.74.071-.178.128-.423.148-.691.026-.322-.026-.69-.228-1.058-.203-.385-.636-.736-1.11-1.03-.436-.274-.9-.508-1.248-.665l-.04-.633c.1-.063.18-.14.233-.228.069-.106.106-.22.106-.345 0-.129-.043-.257-.123-.357-.068-.097-.157-.185-.276-.237l-.032-.55c.072-.049.132-.111.18-.171.057-.086.086-.18.086-.28 0-.111-.046-.205-.106-.29-.054-.083-.128-.143-.211-.189l-.031-.585-.24-4.441c-.008-.06-.068-.105-.128-.105-.074 0-.129.045-.129.105l-.245 4.441-.028.585c-.089.046-.16.106-.214.188-.06.086-.091.18-.091.291 0 .1.025.194.082.28.037.06.097.122.169.17l-.02.551c-.12.052-.22.14-.283.237-.085.1-.128.228-.128.357 0 .125.043.24.103.34.07.093.142.17.233.233l-.031.633c-.354.157-.818.391-1.255.665-.476.294-.904.645-1.103 1.03l-.009.005c-.194.374-.24.73-.225 1.053.026.268.085.513.16.69-1.492.693-3.314 1.64-4.95 2.741-1.689 1.127-3.175 2.43-3.91 3.788-2.285 4.248.339 8.38.342 8.392.005.006.014.012.02.017v13.932h-3.901v-5.714c.008-.011.017-.017.022-.028.083-.129 1.974-3.243.254-6.441-.567-1.047-1.705-2.045-3.003-2.912-1.246-.848-2.646-1.572-3.79-2.103.052-.14.098-.328.115-.527.017-.251-.02-.537-.177-.816-.157-.294-.488-.568-.85-.796-.336-.205-.696-.385-.964-.508l-.028-.482c.077-.051.137-.114.18-.18.054-.082.08-.168.08-.268s-.032-.194-.092-.27c-.054-.075-.123-.14-.214-.18l-.023-.422c.054-.04.097-.086.137-.134.043-.063.066-.135.066-.212 0-.085-.034-.162-.08-.23-.043-.06-.1-.106-.166-.138l-.022-.453-.183-3.409c-.008-.048-.054-.082-.1-.082-.057 0-.1.034-.1.082l-.185 3.409-.023.453c-.07.032-.122.077-.165.137-.043.069-.071.146-.071.231 0 .077.023.149.065.212.029.048.077.094.129.134l-.015.422c-.09.04-.168.105-.216.18-.066.076-.103.17-.103.27s.037.186.083.263c.054.071.11.134.18.185l-.023.482c-.271.123-.63.303-.967.508-.365.228-.696.502-.847.796-.157.29-.191.565-.18.816.02.2.066.388.123.527-1.144.53-2.544 1.255-3.804 2.103-1.295.867-2.438 1.865-3.003 2.912-1.754 3.26.26 6.435.262 6.446l.017.018v5.719H83l-.362-27.8c.442-.171.907-.622 1.155-1.164l.738-1.609c.314-.681-.062-1.238-.84-1.238h-1.104l-.243-18.706h.009l.003-.659h-.02l-.006-.573c.282-.211.559-.568.727-.976h.083v-.222l.556-1.444c.262-.687-.051-1.24-.702-1.24h-.715l-.14-10.571v-.38h-.006l-.023-1.888v-.285l-.088-6.61h.046v-.096h.042v-.097h.089v-.177h-.089v-.097h-.04v-.086h-.06l-.01-.901c.253-.226.492-.596.632-1.016l.542-1.608c.228-.685-.046-1.241-.616-1.241h-.656l.026-5.982h.824v-.082h.02v-.043h.017l.006-.143h-.02v-.037h-.02v-.097h-.816c.046-.502.077-1.412-.21-1.951-.372-.69-1.079-1.152-1.672-1.714.171-.097.294-.277.3-.491 0-.314-.246-.556-.54-.573.254-.006.468-.223.468-.49.006-.269-.205-.483-.467-.489.174-.008.319-.15.319-.33 0-.186-.134-.34-.325-.34-.188 0-.334.154-.334.34 0 .18.143.322.32.33-.263.006-.485.22-.485.488-.009.268.202.485.465.49-.3.018-.545.26-.554.574 0 .205.109.38.269.48-.6.567-1.324 1.032-1.703 1.725-.294.54-.27 1.449-.23 1.951h-.822v.097h-.012v.037h-.025v.143h.02v.043h.017v.082h.824l-.029 5.982h-1.14c-.568 0-.844.556-.613 1.24.216.642.322.965.539 1.61.228.684.724 1.237 1.103 1.237l-.011.68h-.054v.085h-.052v.097h-.088v.177h.088v.097h.046l-.003.097h.046l-.157 6.609-.012.388-.04 1.785-.005.38-.248 10.57h-.976c-.647 0-.96.554-.698 1.241.245.642.368.965.616 1.606.202.54.593.99.96 1.164l-.01.445h-.02v.66l-.44 18.705h-1.103c-.779 0-1.152.557-.839 1.238.294.645.442.97.736 1.61.24.518.684.963 1.115 1.149l-.659 27.814h-8.88v-15.877c.043-.111.083-.217.123-.328 2.298-6.09-6.476-10.942-11.53-15.126-.84-.696-1.46-1.56-1.79-2.071-.034-1.418-.08-2.548-.131-3.29h.062c1.651 0 3.077-.963 3.745-2.361-.762.958-1.934 1.577-3.251 1.577-.22 0-.434-.017-.645-.05-.017-.084-.034-.13-.051-.13-.017 0-.031.04-.046.112-1.936-.35-3.407-2.042-3.407-4.076 0-.636.145-1.244.402-1.777-.56.701-.893 1.597-.893 2.567 0 2.174 1.674 3.956 3.804 4.127-.051.736-.094 1.874-.131 3.3-.33.511-.95 1.376-1.79 2.072-5.051 4.184-13.828 9.036-11.53 15.126.04.111.083.217.123.328v15.877h-8.66V135.62l.182-.485c3.45-9.147-9.724-16.424-17.304-22.708-1.266-1.047-2.196-2.342-2.692-3.115-.046-1.817-.1-3.326-.163-4.418h-.484c-.063 1.092-.12 2.601-.163 4.418-.496.773-1.426 2.068-2.692 3.115-2.301 1.905-5.113 3.905-7.822 6.022V233h414v-9.497c-39.46-16.373-59.3-24.551-59.519-24.535z" transform="translate(0 81)"/>
                </g>
            </g>
        </g>
    </g>
</svg>
