<?xml version="1.0" encoding="UTF-8"?>
<svg width="36px" height="36px" viewBox="0 0 36 36" version="1.1" xmlns="http://www.w3.org/2000/svg" xmlns:xlink="http://www.w3.org/1999/xlink">
    <title>icon/frameAyat</title>
    <desc>Created with Sketch.</desc>
    <g id="icon/frameAyat" stroke="none" stroke-width="1" fill="currentColor" fill-rule="evenodd">
        <path d="M18,36 C18.2635294,35.5050412 18.5105882,35.0650779 18.7411765,34.68011 C18.9717647,34.2951421 19.2270588,33.9514207 19.5070588,33.6489459 C19.7870588,33.3464711 20.1192157,33.0769936 20.5035294,32.8405133 C20.8878431,32.604033 21.3709804,32.3923006 21.9529412,32.2053162 C22.787451,31.9303391 23.6384314,31.5673694 24.5058824,31.116407 C25.3733333,30.6654445 26.3066667,30.0439963 27.3058824,29.2520623 C27.7780392,28.8670944 28.1596078,28.5453712 28.4505882,28.2868928 C28.7415686,28.0284143 29.0270588,27.8111824 29.3070588,27.6351971 C29.5870588,27.4592117 29.9082353,27.3134739 30.2705882,27.1979835 C30.6329412,27.0824931 31.1215686,26.9752521 31.7364706,26.8762603 C31.2203922,26.2053162 30.6329412,25.6773602 29.9741176,25.2923923 C30.6768627,24.2694775 31.1901961,23.1393217 31.5141176,21.9019248 C31.8380392,20.664528 32,19.380385 32,18.0494959 C32,16.6636114 31.8435294,15.3739688 31.5305882,14.1805683 C31.2176471,12.9871677 30.6988235,11.8405133 29.9741176,10.7406049 C30.347451,10.5426214 30.6713725,10.3171402 30.9458824,10.0641613 C31.2203922,9.8111824 31.4839216,9.50870761 31.7364706,9.15673694 C31.1105882,9.0467461 30.6192157,8.9340055 30.2623529,8.81851512 C29.9054902,8.70302475 29.5898039,8.55728689 29.3152941,8.38130156 C29.0407843,8.20531622 28.7580392,7.98808433 28.4670588,7.72960587 C28.1760784,7.47112741 27.7890196,7.14940422 27.3058824,6.7644363 C26.3176471,5.99450046 25.3870588,5.37580202 24.5141176,4.90834097 C23.6411765,4.44087993 22.787451,4.06966086 21.9529412,3.79468378 C21.3709804,3.61869844 20.8878431,3.41246563 20.5035294,3.17598533 C20.1192157,2.93950504 19.7870588,2.6700275 19.5070588,2.3675527 C19.2270588,2.06507791 18.9717647,1.71860678 18.7411765,1.32813932 C18.5105882,0.937671861 18.2635294,0.494958753 18,0 C17.7364706,0.494958753 17.4894118,0.937671861 17.2588235,1.32813932 C17.0282353,1.71860678 16.7729412,2.06507791 16.4929412,2.3675527 C16.2129412,2.6700275 15.8835294,2.93950504 15.5047059,3.17598533 C15.1258824,3.41246563 14.6509804,3.61869844 14.08,3.79468378 C13.6627451,3.93767186 13.24,4.09990834 12.8117647,4.28139322 C12.3835294,4.46287809 11.9498039,4.67186068 11.5105882,4.90834097 C11.0713725,5.14482126 10.6211765,5.41704858 10.16,5.72502291 C9.69882353,6.03299725 9.22117647,6.37946838 8.72705882,6.7644363 C8.23294118,7.14940422 7.84313725,7.47112741 7.55764706,7.72960587 C7.27215686,7.98808433 6.98941176,8.20531622 6.70941176,8.38130156 C6.42941176,8.55728689 6.1054902,8.70302475 5.73764706,8.81851512 C5.36980392,8.9340055 4.86745098,9.0467461 4.23058824,9.15673694 C4.51607843,9.49770852 4.79607843,9.79468378 5.07058824,10.0476627 C5.34509804,10.3006416 5.65254902,10.5316224 5.99294118,10.7406049 C5.29019608,11.8405133 4.78235294,12.9871677 4.46941176,14.1805683 C4.15647059,15.3739688 4,16.6636114 4,18.0494959 C4,19.380385 4.15921569,20.664528 4.47764706,21.9019248 C4.79607843,23.1393217 5.30117647,24.2749771 5.99294118,25.3088909 C5.6745098,25.5178735 5.37254902,25.7461045 5.08705882,25.9935839 C4.80156863,26.2410632 4.51607843,26.5352887 4.23058824,26.8762603 C4.86745098,26.964253 5.36980392,27.0659945 5.73764706,27.1814849 C6.1054902,27.2969753 6.42941176,27.4454629 6.70941176,27.6269478 C6.98941176,27.8084326 7.27490196,28.0311641 7.56588235,28.2951421 C7.85686275,28.5591201 8.24392157,28.8780935 8.72705882,29.2520623 C9.22117647,29.6480293 9.69882353,29.9972502 10.16,30.299725 C10.6211765,30.6021998 11.0713725,30.8716774 11.5105882,31.1081577 C11.9498039,31.3446379 12.3807843,31.5508708 12.8035294,31.7268561 C13.2262745,31.9028414 13.6517647,32.0623281 14.08,32.2053162 C14.6509804,32.3923006 15.1286275,32.6012832 15.5129412,32.832264 C15.8972549,33.0632447 16.2294118,33.3327223 16.5094118,33.6406966 C16.7894118,33.9486709 17.0419608,34.2978918 17.2670588,34.6883593 C17.4921569,35.0788268 17.7364706,35.5160403 18,36 Z M17.9670588,7.4903758 C17.747451,7.4903758 17.5360784,7.44912924 17.3329412,7.36663611 C17.1298039,7.28414299 16.9541176,7.17140238 16.8058824,7.0284143 C16.6576471,6.88542621 16.5396078,6.71494042 16.4517647,6.51695692 C16.3639216,6.31897342 16.32,6.10999083 16.32,5.89000917 C16.32,5.6700275 16.3639216,5.46379468 16.4517647,5.27131072 C16.5396078,5.07882676 16.6576471,4.91384051 16.8058824,4.77635197 C16.9541176,4.63886343 17.1298039,4.52887259 17.3329412,4.44637947 C17.5360784,4.36388634 17.747451,4.32263978 17.9670588,4.32263978 C18.1976471,4.32263978 18.4172549,4.36388634 18.6258824,4.44637947 C18.8345098,4.52887259 19.0184314,4.63886343 19.1776471,4.77635197 C19.3368627,4.91384051 19.4603922,5.07882676 19.5482353,5.27131072 C19.6360784,5.46379468 19.68,5.6700275 19.68,5.89000917 C19.68,6.10999083 19.6360784,6.31897342 19.5482353,6.51695692 C19.4603922,6.71494042 19.3368627,6.88542621 19.1776471,7.0284143 C19.0184314,7.17140238 18.8345098,7.28414299 18.6258824,7.36663611 C18.4172549,7.44912924 18.1976471,7.4903758 17.9670588,7.4903758 Z M25.5105882,9.53620532 C24.9945098,8.93125573 24.3960784,8.46104491 23.7152941,8.12557287 C23.0345098,7.79010082 22.2109804,7.55087076 21.2447059,7.40788268 C21.1568627,7.35288726 21.0937255,7.27589368 21.0552941,7.17690192 C21.0168627,7.07791017 20.9976471,6.96791934 20.9976471,6.84692942 C20.9976471,6.71494042 21.0223529,6.57745188 21.0717647,6.43446379 C21.1211765,6.29147571 21.1898039,6.16223648 21.2776471,6.0467461 C21.3654902,5.93125573 21.4698039,5.83776352 21.5905882,5.76626948 C21.7113725,5.69477544 21.8486275,5.65902841 22.0023529,5.65902841 C22.76,5.78001833 23.432549,5.96150321 24.02,6.20348304 C24.607451,6.44546288 25.1290196,6.73143905 25.5847059,7.06141155 C26.0403922,7.39138405 26.4439216,7.75710357 26.7952941,8.15857012 C27.1466667,8.56003666 27.4705882,8.97525206 27.7670588,9.40421632 C27.745098,9.40421632 27.7286275,9.40696609 27.7176471,9.41246563 C27.7066667,9.41796517 27.6901961,9.42071494 27.6682353,9.42071494 C27.5364706,9.42071494 27.38,9.39046746 27.1988235,9.3299725 C27.0176471,9.26947754 26.8392157,9.20073327 26.6635294,9.12373969 C26.4878431,9.0467461 26.3341176,8.96975252 26.2023529,8.89275894 C26.0705882,8.81576535 25.9937255,8.75527039 25.9717647,8.71127406 C25.9498039,8.89825848 25.8894118,9.06874427 25.7905882,9.22273144 C25.6917647,9.37671861 25.5984314,9.4812099 25.5105882,9.53620532 Z M10.5058824,9.53620532 C10.3960784,9.4812099 10.2945098,9.37671861 10.2011765,9.22273144 C10.1078431,9.06874427 10.0501961,8.89825848 10.0282353,8.71127406 C9.99529412,8.75527039 9.91294118,8.81576535 9.78117647,8.89275894 C9.64941176,8.96975252 9.49568627,9.0467461 9.32,9.12373969 C9.14431373,9.20073327 8.96588235,9.26947754 8.78470588,9.3299725 C8.60352941,9.39046746 8.45254902,9.42071494 8.33176471,9.42071494 C8.30980392,9.42071494 8.29333333,9.41796517 8.28235294,9.41246563 C8.27137255,9.40696609 8.25490196,9.40421632 8.23294118,9.40421632 C8.52941176,8.97525206 8.85607843,8.56003666 9.21294118,8.15857012 C9.56980392,7.75710357 9.97607843,7.39138405 10.4317647,7.06141155 C10.887451,6.73143905 11.4062745,6.44546288 11.9882353,6.20348304 C12.5701961,5.96150321 13.2454902,5.78001833 14.0141176,5.65902841 C14.1568627,5.65902841 14.2913725,5.69477544 14.4176471,5.76626948 C14.5439216,5.83776352 14.6509804,5.93125573 14.7388235,6.0467461 C14.8266667,6.16223648 14.8952941,6.28872594 14.9447059,6.42621448 C14.9941176,6.56370302 15.0188235,6.70394134 15.0188235,6.84692942 C15.0188235,7.09990834 14.92,7.28689276 14.7223529,7.40788268 C13.7560784,7.55087076 12.9352941,7.79010082 12.26,8.12557287 C11.5847059,8.46104491 11,8.93125573 10.5058824,9.53620532 Z M21.64,26.6947754 C21.134902,26.6947754 20.7258824,26.675527 20.4129412,26.6370302 C20.1,26.5985335 19.8227451,26.5215399 19.5811765,26.4060495 C19.3396078,26.2905591 19.1007843,26.1228231 18.8647059,25.9028414 C18.6286275,25.6828598 18.3403922,25.3968836 18,25.0449129 C17.6596078,25.3968836 17.3768627,25.6828598 17.1517647,25.9028414 C16.9266667,26.1228231 16.6960784,26.2905591 16.46,26.4060495 C16.2239216,26.5215399 15.9494118,26.5985335 15.6364706,26.6370302 C15.3235294,26.675527 14.9090196,26.6947754 14.3929412,26.6947754 C13.9866667,26.6947754 13.6215686,26.5957837 13.2976471,26.3978002 C12.9737255,26.1998167 12.6717647,25.9825848 12.3917647,25.7461045 C12.1117647,25.5096242 11.8427451,25.2923923 11.5847059,25.0944088 C11.3266667,24.8964253 11.0603922,24.7974335 10.7858824,24.7974335 C10.5662745,24.7974335 10.3439216,24.8551787 10.1188235,24.9706691 C9.89372549,25.0861595 9.69333333,25.2208983 9.51764706,25.3748854 C9.18823529,25.2318973 8.9054902,25.1109074 8.66941176,25.0119157 C8.43333333,24.9129239 8.16705882,24.863428 7.87058824,24.863428 C7.2227451,23.8515124 6.73137255,22.7791017 6.39647059,21.6461962 C6.06156863,20.5132906 5.89411765,19.2978918 5.89411765,18 C5.89411765,15.4152154 6.55294118,13.1329056 7.87058824,11.1530706 C8.10117647,11.1310724 8.34823529,11.0788268 8.61176471,10.9963336 C8.87529412,10.9138405 9.1772549,10.7791017 9.51764706,10.5921173 C9.69333333,10.7461045 9.89372549,10.8808433 10.1188235,10.9963336 C10.3439216,11.111824 10.5662745,11.1695692 10.7858824,11.1695692 C11.0603922,11.1695692 11.3266667,11.0678277 11.5847059,10.8643446 C11.8427451,10.6608616 12.1117647,10.4408799 12.3917647,10.2043996 C12.6717647,9.96791934 12.9737255,9.74793767 13.2976471,9.54445463 C13.6215686,9.34097159 13.9866667,9.23923006 14.3929412,9.23923006 C14.9090196,9.23923006 15.3235294,9.26122823 15.6364706,9.30522456 C15.9494118,9.3492209 16.2266667,9.43446379 16.4682353,9.56095325 C16.7098039,9.68744271 16.9431373,9.86067828 17.1682353,10.0806599 C17.3933333,10.3006416 17.6705882,10.5866178 18,10.9385885 C18.3403922,10.5756187 18.6286275,10.284143 18.8647059,10.0641613 C19.1007843,9.84417965 19.3396078,9.67369386 19.5811765,9.55270394 C19.8227451,9.43171402 20.1,9.3492209 20.4129412,9.30522456 C20.7258824,9.26122823 21.134902,9.23923006 21.64,9.23923006 C22.0352941,9.23923006 22.3976471,9.34097159 22.7270588,9.54445463 C23.0564706,9.74793767 23.3639216,9.96791934 23.6494118,10.2043996 C23.934902,10.4408799 24.2039216,10.6608616 24.4564706,10.8643446 C24.7090196,11.0678277 24.9615686,11.1695692 25.2141176,11.1695692 C25.4447059,11.1695692 25.6698039,11.111824 25.8894118,10.9963336 C26.1090196,10.8808433 26.3066667,10.7461045 26.4823529,10.5921173 C26.7568627,10.7461045 27.0286275,10.872594 27.2976471,10.9715857 C27.5666667,11.0705775 27.8384314,11.1310724 28.1129412,11.1530706 C28.7717647,12.1539872 29.2713725,13.223648 29.6117647,14.3620532 C29.9521569,15.5004583 30.1223529,16.7131072 30.1223529,18 C30.1223529,19.2978918 29.9521569,20.5132906 29.6117647,21.6461962 C29.2713725,22.7791017 28.7717647,23.8515124 28.1129412,24.863428 C27.8823529,24.863428 27.6462745,24.9101742 27.4047059,25.0036664 C27.1631373,25.0971586 26.8556863,25.2208983 26.4823529,25.3748854 C26.3066667,25.2208983 26.1090196,25.0861595 25.8894118,24.9706691 C25.6698039,24.8551787 25.4447059,24.7974335 25.2141176,24.7974335 C24.9615686,24.7974335 24.7090196,24.8964253 24.4564706,25.0944088 C24.2039216,25.2923923 23.934902,25.5096242 23.6494118,25.7461045 C23.3639216,25.9825848 23.0564706,26.1998167 22.7270588,26.3978002 C22.3976471,26.5957837 22.0352941,26.6947754 21.64,26.6947754 Z M22.0023529,30.2419798 C21.694902,30.2419798 21.4505882,30.1209899 21.2694118,29.8790101 C21.0882353,29.6370302 20.9976471,29.3730522 20.9976471,29.0870761 C20.9976471,28.9660862 21.0168627,28.8588451 21.0552941,28.7653529 C21.0937255,28.6718607 21.1568627,28.5976169 21.2447059,28.5426214 C22.2109804,28.3776352 23.0345098,28.127406 23.7152941,27.791934 C24.3960784,27.456462 24.9945098,26.9807516 25.5105882,26.3648029 C25.5984314,26.4087993 25.6917647,26.5132906 25.7905882,26.6782768 C25.8894118,26.8432631 25.9498039,27.0247479 25.9717647,27.2227314 C25.9937255,27.1457379 26.0788235,27.0659945 26.2270588,26.9835014 C26.3752941,26.9010082 26.5454902,26.8240147 26.7376471,26.7525206 C26.9298039,26.6810266 27.1219608,26.6205316 27.3141176,26.5710357 C27.5062745,26.5215399 27.6572549,26.4967919 27.7670588,26.4967919 C27.4705882,26.9257562 27.1466667,27.3409716 26.7952941,27.7424381 C26.4439216,28.1439047 26.0403922,28.5096242 25.5847059,28.8395967 C25.1290196,29.1695692 24.607451,29.4555454 24.02,29.6975252 C23.432549,29.939505 22.76,30.1209899 22.0023529,30.2419798 Z M14.0141176,30.2419798 C13.2454902,30.1209899 12.5701961,29.939505 11.9882353,29.6975252 C11.4062745,29.4555454 10.887451,29.1695692 10.4317647,28.8395967 C9.97607843,28.5096242 9.56980392,28.1439047 9.21294118,27.7424381 C8.85607843,27.3409716 8.52941176,26.9257562 8.23294118,26.4967919 C8.3427451,26.4967919 8.49098039,26.5215399 8.67764706,26.5710357 C8.86431373,26.6205316 9.05098039,26.6810266 9.23764706,26.7525206 C9.42431373,26.8240147 9.5945098,26.9010082 9.74823529,26.9835014 C9.90196078,27.0659945 9.99529412,27.1457379 10.0282353,27.2227314 C10.0501961,27.0247479 10.1078431,26.8432631 10.2011765,26.6782768 C10.2945098,26.5132906 10.3960784,26.4087993 10.5058824,26.3648029 C11,26.9807516 11.5847059,27.456462 12.26,27.791934 C12.9352941,28.127406 13.7560784,28.3776352 14.7223529,28.5426214 C14.92,28.6526123 15.0188235,28.8340972 15.0188235,29.0870761 C15.0188235,29.3730522 14.9254902,29.6370302 14.7388235,29.8790101 C14.5521569,30.1209899 14.3105882,30.2419798 14.0141176,30.2419798 Z M17.9670588,31.5948671 C17.747451,31.5948671 17.5360784,31.5536205 17.3329412,31.4711274 C17.1298039,31.3886343 16.9541176,31.2786434 16.8058824,31.1411549 C16.6576471,31.0036664 16.5396078,30.8359303 16.4517647,30.6379468 C16.3639216,30.4399633 16.32,30.2254812 16.32,29.9945005 C16.32,29.7745188 16.3639216,29.5655362 16.4517647,29.3675527 C16.5396078,29.1695692 16.6576471,28.9990834 16.8058824,28.8560953 C16.9541176,28.7131072 17.1298039,28.6003666 17.3329412,28.5178735 C17.5360784,28.4353804 17.747451,28.3941338 17.9670588,28.3941338 C18.1976471,28.3941338 18.4172549,28.4353804 18.6258824,28.5178735 C18.8345098,28.6003666 19.0184314,28.7131072 19.1776471,28.8560953 C19.3368627,28.9990834 19.4603922,29.1695692 19.5482353,29.3675527 C19.6360784,29.5655362 19.68,29.7745188 19.68,29.9945005 C19.68,30.2254812 19.6360784,30.4399633 19.5482353,30.6379468 C19.4603922,30.8359303 19.3368627,31.0036664 19.1776471,31.1411549 C19.0184314,31.2786434 18.8345098,31.3886343 18.6258824,31.4711274 C18.4172549,31.5536205 18.1976471,31.5948671 17.9670588,31.5948671 Z" id="۝١" fill="#B0B3B8"></path>
    </g>
</svg>