<svg width="24" height="24" viewBox="0 0 24 24" fill="none" xmlns="http://www.w3.org/2000/svg">
<rect x="6" y="12" width="12" height="10" stroke="url(#paint0_linear_33_52)" stroke-width="1.5" stroke-linecap="round" stroke-linejoin="round"/>
<path d="M14 22V18C14 16.8954 13.1046 16 12 16C10.8954 16 10 16.8954 10 18V22" stroke="url(#paint1_linear_33_52)" stroke-width="1.5" stroke-linecap="round" stroke-linejoin="round"/>
<path d="M18 12L20.7022 13.0133C21.7801 13.4175 22 13.7348 22 14.886V22H18V12Z" stroke="url(#paint2_linear_33_52)" stroke-width="1.5" stroke-linecap="round" stroke-linejoin="round"/>
<path d="M2 14.886C2 13.7348 2.21988 13.4175 3.29775 13.0133L6 12V22H2V14.886Z" stroke="url(#paint3_linear_33_52)" stroke-width="1.5" stroke-linecap="round" stroke-linejoin="round"/>
<path d="M16.208 9.5C17.3133 6.36054 15.1439 3 12 3C8.85611 3 6.68666 6.36054 7.79198 9.5" stroke="url(#paint4_linear_33_52)" stroke-width="1.5" stroke-linecap="round" stroke-linejoin="round"/>
<path d="M12 3V2" stroke="url(#paint5_linear_33_52)" stroke-width="1.5" stroke-linecap="round" stroke-linejoin="round"/>
<path d="M8 12V10M16 12V10" stroke="url(#paint6_linear_33_52)" stroke-width="1.5" stroke-linecap="round" stroke-linejoin="round"/>
<path d="M7 9.5H17" stroke="url(#paint7_linear_33_52)" stroke-width="1.5" stroke-linecap="round" stroke-linejoin="round"/>
<defs>
<linearGradient id="paint0_linear_33_52" x1="12" y1="12" x2="12" y2="22" gradientUnits="userSpaceOnUse">
<stop stop-color="#D0CECE"/>
<stop offset="1" stop-color="#8A8888"/>
</linearGradient>
<linearGradient id="paint1_linear_33_52" x1="12" y1="16" x2="12" y2="22" gradientUnits="userSpaceOnUse">
<stop stop-color="#D0CECE"/>
<stop offset="1" stop-color="#8A8888"/>
</linearGradient>
<linearGradient id="paint2_linear_33_52" x1="20" y1="12" x2="20" y2="22" gradientUnits="userSpaceOnUse">
<stop stop-color="#D0CECE"/>
<stop offset="1" stop-color="#8A8888"/>
</linearGradient>
<linearGradient id="paint3_linear_33_52" x1="4" y1="12" x2="4" y2="22" gradientUnits="userSpaceOnUse">
<stop stop-color="#D0CECE"/>
<stop offset="1" stop-color="#8A8888"/>
</linearGradient>
<linearGradient id="paint4_linear_33_52" x1="12" y1="3" x2="12" y2="9.5" gradientUnits="userSpaceOnUse">
<stop stop-color="#D0CECE"/>
<stop offset="1" stop-color="#8A8888"/>
</linearGradient>
<linearGradient id="paint5_linear_33_52" x1="12.5" y1="2" x2="12.5" y2="3" gradientUnits="userSpaceOnUse">
<stop stop-color="#D0CECE"/>
<stop offset="1" stop-color="#8A8888"/>
</linearGradient>
<linearGradient id="paint6_linear_33_52" x1="12" y1="10" x2="12" y2="12" gradientUnits="userSpaceOnUse">
<stop stop-color="#D0CECE"/>
<stop offset="1" stop-color="#8A8888"/>
</linearGradient>
<linearGradient id="paint7_linear_33_52" x1="12" y1="9.5" x2="12" y2="10.5" gradientUnits="userSpaceOnUse">
<stop stop-color="#D0CECE"/>
<stop offset="1" stop-color="#8A8888"/>
</linearGradient>
</defs>
</svg>
