<svg width="24" height="24" viewBox="0 0 24 24" fill="none" xmlns="http://www.w3.org/2000/svg">
<g clip-path="url(#clip0_33_26)">
<path d="M20.5 17H6C4.61929 17 3.5 18.1193 3.5 19.5C3.5 20.8807 4.61929 22 6 22H20.5" stroke="url(#paint0_linear_33_26)" stroke-width="1.5" stroke-linecap="round"/>
<path d="M20.5 22C19.1193 22 18 20.8807 18 19.5C18 18.1193 19.1193 17 20.5 17" stroke="url(#paint1_linear_33_26)" stroke-width="1.5" stroke-linecap="round"/>
<path d="M11.8223 9.42432C11.8545 9.47445 11.8993 9.52816 11.9565 9.58545C12.0138 9.64274 12.0747 9.69824 12.1392 9.75195C12.2036 9.80566 12.2681 9.854 12.3325 9.89697C12.397 9.93994 12.4507 9.96859 12.4937 9.98291C12.508 9.98649 12.5151 9.99723 12.5151 10.0151C12.5151 10.0259 12.5062 10.0402 12.4883 10.0581C12.4668 10.0832 12.4274 10.1315 12.3701 10.2031C12.3128 10.2747 12.252 10.3481 12.1875 10.4233C12.1266 10.4985 12.0693 10.5648 12.0156 10.6221C11.9619 10.6794 11.9279 10.708 11.9136 10.708C11.8706 10.708 11.8097 10.6829 11.731 10.6328C11.6522 10.5863 11.5734 10.5308 11.4946 10.4663C11.4194 10.4019 11.3514 10.3356 11.2905 10.2676C11.2332 10.1995 11.2046 10.1458 11.2046 10.1064C11.2046 10.0921 11.2118 10.076 11.2261 10.0581C11.2619 10.0044 11.3084 9.93994 11.3657 9.86475C11.423 9.78955 11.4803 9.71794 11.5376 9.6499C11.5985 9.58187 11.6522 9.52458 11.6987 9.47803C11.7489 9.43148 11.7811 9.4082 11.7954 9.4082C11.8062 9.4082 11.8151 9.41357 11.8223 9.42432ZM10.7373 7.08252C10.5798 7.04671 10.4276 7.02165 10.2808 7.00732C10.1375 6.993 9.99967 6.98584 9.86719 6.98584C9.66667 6.98584 9.48763 6.99837 9.33008 7.02344C9.17253 7.0485 9.03646 7.07715 8.92188 7.10938C8.81087 7.1416 8.72135 7.17025 8.65332 7.19531C8.58529 7.22038 8.54053 7.23291 8.51904 7.23291C8.50114 7.23291 8.48324 7.22933 8.46533 7.22217C8.45101 7.21501 8.44385 7.1971 8.44385 7.16846C8.44385 7.15771 8.45101 7.12012 8.46533 7.05566C8.48324 6.98763 8.50651 6.90706 8.53516 6.81396C8.5638 6.72087 8.59603 6.61882 8.63184 6.50781C8.66764 6.39681 8.70703 6.29297 8.75 6.19629C8.79297 6.09603 8.83594 6.0083 8.87891 5.93311C8.92188 5.85433 8.96484 5.80241 9.00781 5.77734C9.14388 5.69499 9.30322 5.63949 9.48584 5.61084C9.66846 5.57861 9.85286 5.5625 10.0391 5.5625C10.2432 5.5625 10.4544 5.57682 10.6729 5.60547C10.8913 5.63411 11.1169 5.66634 11.3496 5.70215C11.5859 5.73796 11.8276 5.77018 12.0747 5.79883C12.3218 5.82747 12.576 5.8418 12.8374 5.8418C13.0666 5.8418 13.3047 5.83643 13.5518 5.82568C13.7988 5.81494 14.0387 5.80957 14.2715 5.80957C14.3252 5.80957 14.3628 5.81494 14.3843 5.82568C14.4093 5.83285 14.4219 5.86149 14.4219 5.91162C14.4219 5.94027 14.4147 5.99219 14.4004 6.06738C14.3861 6.14258 14.3682 6.22852 14.3467 6.3252C14.3252 6.42188 14.2983 6.52214 14.2661 6.62598C14.2375 6.72982 14.2052 6.8265 14.1694 6.91602C14.1372 7.00195 14.1032 7.07357 14.0674 7.13086C14.0352 7.18815 14.0029 7.2168 13.9707 7.2168C13.9242 7.2168 13.8776 7.2168 13.8311 7.2168C13.7845 7.21322 13.738 7.21143 13.6914 7.21143C12.9717 7.21143 12.3218 7.30632 11.7417 7.49609C11.1616 7.68229 10.6675 7.93294 10.2593 8.24805C9.85465 8.55957 9.54134 8.91764 9.31934 9.32227C9.10091 9.72689 8.9917 10.1458 8.9917 10.5791C8.9917 10.9229 9.05615 11.2183 9.18506 11.4653C9.31396 11.716 9.48405 11.9272 9.69531 12.0991C9.90658 12.271 10.1483 12.4089 10.4204 12.5127C10.6925 12.6201 10.9701 12.7025 11.2529 12.7598C11.5358 12.8171 11.8133 12.8547 12.0854 12.8726C12.3576 12.894 12.6011 12.9048 12.8159 12.9048C13.0988 12.9048 13.3602 12.8976 13.6001 12.8833C13.8436 12.869 14.0602 12.8511 14.25 12.8296C14.4398 12.8117 14.6009 12.7956 14.7334 12.7812C14.8659 12.7669 14.9661 12.7598 15.0342 12.7598C15.0413 12.7598 15.0539 12.7598 15.0718 12.7598C15.0897 12.7598 15.1076 12.7616 15.1255 12.7651C15.1434 12.7723 15.1595 12.7795 15.1738 12.7866C15.1882 12.7974 15.1953 12.8099 15.1953 12.8242C15.1953 12.8851 15.1649 12.9531 15.104 13.0283C15.0431 13.1071 14.9715 13.1877 14.8892 13.27C14.7603 13.4061 14.5938 13.5439 14.3896 13.6836C14.1891 13.8232 13.9635 13.9486 13.7129 14.0596C13.4658 14.1742 13.2008 14.2673 12.918 14.3389C12.6387 14.4141 12.3576 14.4517 12.0747 14.4517C11.3908 14.4517 10.8161 14.3693 10.3506 14.2046C9.88867 14.0399 9.51628 13.8125 9.2334 13.5225C8.9541 13.236 8.75358 12.8958 8.63184 12.502C8.51367 12.1117 8.45459 11.6891 8.45459 11.2344C8.45459 10.7939 8.50293 10.3696 8.59961 9.96143C8.69629 9.5568 8.83952 9.17904 9.0293 8.82812C9.21908 8.47363 9.45719 8.14958 9.74365 7.85596C10.0301 7.56234 10.3613 7.30452 10.7373 7.08252Z" fill="url(#paint2_linear_33_26)"/>
<path d="M3.5 19.5V5.5C3.5 3.567 5.067 2 7 2H17C18.933 2 20.5 3.567 20.5 5.5V17" stroke="url(#paint3_linear_33_26)" stroke-width="1.5" stroke-linecap="round" stroke-linejoin="round"/>
</g>
<defs>
<linearGradient id="paint0_linear_33_26" x1="12" y1="17" x2="12" y2="22" gradientUnits="userSpaceOnUse">
<stop stop-color="#59DFB9"/>
<stop offset="1" stop-color="#009788"/>
</linearGradient>
<linearGradient id="paint1_linear_33_26" x1="19.25" y1="17" x2="19.25" y2="22" gradientUnits="userSpaceOnUse">
<stop stop-color="#59DFB9"/>
<stop offset="1" stop-color="#009788"/>
</linearGradient>
<linearGradient id="paint2_linear_33_26" x1="11.5" y1="-2" x2="11.5" y2="16" gradientUnits="userSpaceOnUse">
<stop stop-color="#59DFB9"/>
<stop offset="1" stop-color="#009788"/>
</linearGradient>
<linearGradient id="paint3_linear_33_26" x1="12" y1="2" x2="12" y2="19.5" gradientUnits="userSpaceOnUse">
<stop stop-color="#59DFB9"/>
<stop offset="1" stop-color="#009788"/>
</linearGradient>
<clipPath id="clip0_33_26">
<rect width="24" height="24" fill="white"/>
</clipPath>
</defs>
</svg>
