<svg width="24" height="24" viewBox="0 0 24 24" fill="none" xmlns="http://www.w3.org/2000/svg">
<path d="M14.2192 3.78797C14.2192 2.80966 13.413 2 12.4185 2H10.5815C9.58701 2 8.78084 2.80971 8.78084 3.78803C8.78084 4.50577 8.31512 5.146 7.68381 5.5058C7.05213 5.86581 6.26345 5.93682 5.63122 5.57774C4.76967 5.0884 3.65313 5.37034 3.15571 6.21789L2.23822 7.78123C1.74059 8.62913 2.05013 9.72143 2.91204 10.211C3.54421 10.57 3.87737 11.2819 3.87737 12C3.87737 12.7181 3.54419 13.4299 2.91202 13.789C2.05009 14.2785 1.74053 15.3709 2.23816 16.2188L3.15562 17.7821C3.65304 18.6296 4.7696 18.9116 5.63117 18.4222C6.26341 18.0632 7.0521 18.1342 7.6838 18.4942C8.31511 18.854 8.78084 19.4942 8.78084 20.212C8.78084 21.1903 9.58701 22 10.5815 22H12.4185C13.413 22 14.2192 21.1904 14.2192 20.212C14.2192 19.4942 14.6849 18.854 15.3163 18.4941C15.9481 18.1341 16.7368 18.063 17.3691 18.4221C18.2306 18.9114 19.3469 18.6295 19.8443 17.782L20.7619 16.2186C21.2595 15.3706 20.9498 14.2783 20.0879 13.7887C19.4558 13.4297 19.1227 12.718 19.1227 12C19.1227 11.282 19.4558 10.5702 20.0879 10.2113C20.9498 9.72172 21.2594 8.62937 20.7618 7.78146L19.8442 6.21801C19.3469 5.37052 18.2305 5.08855 17.369 5.57785C16.7367 5.93697 15.948 5.8659 15.3163 5.50584C14.6849 5.14601 14.2192 4.50577 14.2192 3.78797Z" stroke="url(#paint0_linear_35_72)" stroke-width="1.5" stroke-linecap="round" stroke-linejoin="round"/>
<path d="M14.5001 12C14.5001 13.6569 13.1569 15 11.5001 15C9.84321 15 8.50006 13.6569 8.50006 12C8.50006 10.3431 9.84321 9 11.5001 9C13.1569 9 14.5001 10.3431 14.5001 12Z" stroke="url(#paint1_linear_35_72)" stroke-width="1.5" stroke-linecap="round" stroke-linejoin="round"/>
<defs>
<linearGradient id="paint0_linear_35_72" x1="11.5" y1="2" x2="11.5" y2="22" gradientUnits="userSpaceOnUse">
<stop stop-color="#808080"/>
<stop offset="1" stop-color="#4F4F4F"/>
</linearGradient>
<linearGradient id="paint1_linear_35_72" x1="11.5" y1="2" x2="11.5" y2="22" gradientUnits="userSpaceOnUse">
<stop stop-color="#808080"/>
<stop offset="1" stop-color="#4F4F4F"/>
</linearGradient>
</defs>
</svg>
